<svg xmlns="http://www.w3.org/2000/svg" viewBox="0 0 187.51 187.57">
    <defs>
        <style>.cls-1{fill:#3c3c3b;}</style>
    </defs>
    <g id="Layer_2" data-name="Layer 2">
        <g id="Objects">
            <path
                d="M86.76,2.2c-1.46,3.28-2.89,6.54-4.65,9.68-2.75,4.92,4.7,9.28,7.56,4.42A67.54,67.54,0,0,0,94.89,5.63C96.62,1,88.82-2.41,86.76,2.2Z" />
            <path
                d="M104.4,2.45c-2.17,2.88-4.29,5.72-6.71,8.39-3.79,4.18,2.49,10.1,6.37,6a67,67,0,0,0,7.49-9.23C114.29,3.45,107.44-1.57,104.4,2.45Z" />
            <path
                d="M124.68,7.18c-2.76,2.31-5.46,4.6-8.42,6.66-4.64,3.22.15,10.4,4.85,7.28a66.91,66.91,0,0,0,9.37-7.3C134.09,10.37,128.55,3.93,124.68,7.18Z" />
            <path
                d="M143.37,16.34c-3.2,1.63-6.35,3.26-9.7,4.6-5.24,2.09-2.19,10.17,3.09,8.19a67.13,67.13,0,0,0,10.77-5C151.82,21.57,147.87,14.05,143.37,16.34Z" />
            <path
                d="M159.53,29.47c-3.49.87-6.93,1.75-10.49,2.3-5.57.86-4.42,9.41,1.17,8.67A65.82,65.82,0,0,0,161.83,38C166.58,36.47,164.43,28.25,159.53,29.47Z" />
            <path
                d="M172.32,45.9c-3.6.06-7.15.14-10.74-.12-5.63-.41-6.43,8.18-.81,8.72a67.35,67.35,0,0,0,11.88.21C177.62,54.31,177.36,45.82,172.32,45.9Z" />
            <path
                d="M181.08,64.79c-3.52-.76-7-1.47-10.44-2.54-5.38-1.67-8.1,6.53-2.75,8.31a66.64,66.64,0,0,0,11.53,2.89C184.35,74.17,186,65.84,181.08,64.79Z" />
            <path
                d="M185.37,85.16c-3.26-1.53-6.48-3-9.6-4.82-4.87-2.83-9.36,4.54-4.55,7.48a67.17,67.17,0,0,0,10.58,5.41C186.45,95,189.94,87.3,185.37,85.16Z" />
            <path
                d="M185,106c-2.83-2.21-5.64-4.38-8.27-6.85-4.11-3.86-10.14,2.32-6.12,6.27a67.7,67.7,0,0,0,9.1,7.64C183.8,115.84,189,109.09,185,106Z" />
            <path
                d="M179.9,126.17c-2.27-2.8-4.52-5.54-6.52-8.54-3.14-4.69-10.4,0-7.37,4.73a68.07,68.07,0,0,0,7.14,9.49C176.53,135.52,183.07,130.09,179.9,126.17Z" />
            <path
                d="M170.41,144.7c-1.57-3.23-3.15-6.41-4.43-9.78-2-5.28-10.13-2.37-8.24,3a67.39,67.39,0,0,0,4.82,10.85C165,153.06,172.62,149.24,170.41,144.7Z" />
            <path
                d="M157,160.62c-.81-3.5-1.63-7-2.12-10.52-.76-5.59-9.34-4.59-8.69,1a67.84,67.84,0,0,0,2.25,11.66C149.87,167.56,158.13,165.54,157,160.62Z" />
            <path
                d="M140.35,173.12c0-3.59,0-7.14.3-10.73.52-5.62-8.06-6.57-8.7-1a67.28,67.28,0,0,0-.42,11.87C131.85,178.28,140.34,178.17,140.35,173.12Z" />
            <path
                d="M121.31,181.56c.81-3.51,1.59-7,2.71-10.39,1.77-5.36-6.38-8.22-8.26-2.9a67.22,67.22,0,0,0-3.08,11.47C111.87,184.66,120.17,186.47,121.31,181.56Z" />
            <path
                d="M100.87,185.49c1.58-3.23,3.11-6.43,5-9.51,2.92-4.83-4.37-9.44-7.4-4.68a67.54,67.54,0,0,0-5.59,10.48C91,186.4,98.65,190,100.87,185.49Z" />
            <path
                d="M80.06,184.73c2.27-2.8,4.48-5.57,7-8.15,3.94-4-2.13-10.18-6.15-6.23a67.07,67.07,0,0,0-7.8,9C70.21,183.38,76.88,188.65,80.06,184.73Z" />
            <path
                d="M60,179.3c2.84-2.21,5.62-4.42,8.65-6.37,4.74-3.05.21-10.4-4.6-7.45a68,68,0,0,0-9.62,7C50.67,175.77,56,182.4,60,179.3Z" />
            <path
                d="M41.59,169.49c3.27-1.52,6.47-3,9.86-4.26,5.31-1.91,2.55-10.08-2.8-8.29a67.47,67.47,0,0,0-10.94,4.63C33.33,164,37,171.62,41.59,169.49Z" />
            <path
                d="M25.91,155.8c3.52-.74,7-1.5,10.56-1.93,5.6-.66,4.75-9.25-.87-8.71a67.28,67.28,0,0,0-11.7,2.05C19.1,148.56,21,156.85,25.91,155.8Z" />
            <path
                d="M13.7,138.94c3.6.06,7.15.1,10.73.49,5.6.61,6.71-8,1.11-8.68a66.3,66.3,0,0,0-11.86-.63C8.7,130.35,8.65,138.84,13.7,138.94Z" />
            <path
                d="M5.6,119.76c3.49.87,6.94,1.71,10.34,2.89,5.33,1.86,8.33-6.24,3-8.21a67.7,67.7,0,0,0-11.42-3.28C2.66,110.26.7,118.53,5.6,119.76Z" />
            <path
                d="M2,99.25c3.21,1.63,6.38,3.22,9.43,5.14,4.77,3,9.51-4.2,4.81-7.31A67.55,67.55,0,0,0,5.87,91.31C1.29,89.34-2.47,97,2,99.25Z" />
            <path
                d="M3.15,78.46c2.75,2.31,5.49,4.58,8,7.13,4,4,10.21-2,6.33-6a67.83,67.83,0,0,0-8.82-8C4.67,68.63-.71,75.21,3.15,78.46Z" />
            <path
                d="M8.93,58.45c2.16,2.88,4.31,5.7,6.21,8.76,3,4.8,10.4.39,7.53-4.47A66.87,66.87,0,0,0,15.86,53C12.61,49.22,5.89,54.42,8.93,58.45Z" />
            <path
                d="M19.05,40.26c1.46,3.29,2.93,6.52,4.09,9.93,1.82,5.34,10,2.72,8.34-2.66a66.88,66.88,0,0,0-4.44-11C24.72,32.1,17,35.65,19.05,40.26Z" />
            <path
                d="M33,24.82c.69,3.53,1.39,7,1.75,10.59.57,5.61,9.17,4.91,8.73-.71A68.33,68.33,0,0,0,41.64,23C40.37,18.14,32.06,19.86,33,24.82Z" />
            <path
                d="M50.09,12.91c-.13,3.59-.23,7.14-.68,10.71-.71,5.6,7.83,6.85,8.66,1.27A67.16,67.16,0,0,0,58.91,13C58.76,8.05,50.27,7.86,50.09,12.91Z" />
            <path
                d="M69.41,5.14c-.93,3.48-1.83,6.91-3.08,10.29-1.94,5.29,6.1,8.43,8.16,3.18A66.41,66.41,0,0,0,78,7.26C79,2.37,70.72.27,69.41,5.14Z" />
        </g>
    </g>
</svg>